<svg width="232" height="96" viewBox="0 0 232 96" fill="none" xmlns="http://www.w3.org/2000/svg">
<g clip-path="url(#clip0_1_47)">
<path d="M216 51.9526L212.639 50.9285C212.063 53.0088 210.719 54.065 208.575 54.065C207.911 54.0938 207.25 53.967 206.644 53.6947C206.039 53.4224 205.505 53.0121 205.086 52.4967C204.286 51.4405 203.87 49.9363 203.87 47.984C203.87 46.0317 204.286 44.5594 205.15 43.5033C205.571 42.9898 206.105 42.5808 206.71 42.3087C207.315 42.0366 207.976 41.9087 208.639 41.935C209.695 41.935 210.495 42.1591 211.103 42.6391C211.711 43.1192 212.159 43.8553 212.447 44.9115L215.776 43.5033C215.372 42.0679 214.432 40.8422 213.152 40.0787C211.871 39.3106 210.335 38.9265 208.479 38.9265C206.925 38.8826 205.388 39.2585 204.03 40.0147C202.757 40.7421 201.731 41.8347 201.086 43.1512C200.377 44.662 200.027 46.3157 200.061 47.984C200.024 49.6628 200.375 51.3276 201.086 52.8488C201.731 54.1653 202.757 55.2579 204.03 55.9853C205.412 56.7409 206.969 57.1164 208.543 57.0734C210.216 57.1094 211.863 56.6531 213.28 55.7612C214.592 54.9291 215.488 53.6489 216 51.9526ZM198.269 39.1826H194.589V56.8174H198.269V39.1826ZM192.316 39.1826H176.826V42.1591H182.747V56.8174H186.427V42.1591H192.316V39.1826ZM168.376 38.9265C167.059 38.9012 165.751 39.152 164.536 39.6627C163.518 40.0492 162.646 40.7426 162.039 41.647C161.467 42.4739 161.165 43.4579 161.175 44.4634C161.141 45.3545 161.375 46.2354 161.847 46.9918C162.388 47.7482 163.131 48.3362 163.992 48.6881C165.263 49.2467 166.595 49.6548 167.96 49.9043C169.401 50.1923 170.393 50.4804 170.969 50.8004C171.545 51.1205 171.801 51.5366 171.801 52.0166C171.802 52.3252 171.72 52.6283 171.562 52.8933C171.404 53.1584 171.177 53.3754 170.905 53.5209C170.102 53.9223 169.209 54.1097 168.312 54.065C167.211 54.096 166.117 53.8771 165.112 53.4249C164.161 52.9042 163.374 52.1283 162.839 51.1845L160.663 53.7769C161.398 54.8795 162.446 55.7376 163.672 56.2413C164.92 56.7854 166.488 57.0734 168.44 57.0734C169.717 57.091 170.986 56.8741 172.185 56.4333C173.193 56.079 174.081 55.4465 174.745 54.6091C175.363 53.8016 175.69 52.8092 175.674 51.7926C175.704 50.9121 175.469 50.0427 175.001 49.2962C174.49 48.5586 173.78 47.9814 172.953 47.6319C171.725 47.0984 170.435 46.722 169.113 46.5118C167.608 46.2237 166.552 45.9357 165.944 45.5836C165.687 45.4392 165.473 45.2305 165.321 44.978C165.17 44.7254 165.086 44.4378 165.08 44.1434C165.071 43.8244 165.147 43.5087 165.298 43.2279C165.45 42.9471 165.673 42.711 165.944 42.5431C166.52 42.1271 167.352 41.935 168.408 41.935C169.425 41.9056 170.43 42.1488 171.321 42.6391C172.127 43.1585 172.762 43.9045 173.145 44.7835L175.706 42.3191C174.897 41.2155 173.831 40.3257 172.601 39.7267C171.267 39.1583 169.826 38.8853 168.376 38.9265ZM148.949 49.7763L150.646 44.7835L151.414 42.1591H151.446L152.246 44.8155L153.91 49.7763H148.949ZM156.278 56.8174H160.087L153.654 39.1826H149.269L142.836 56.8174H146.613L148.053 52.4967H154.806L156.278 56.8174ZM145.717 39.1826H130.226V42.1591H136.147V56.8174H139.828V42.1591H145.717V39.1826ZM128.178 39.1826H124.849V49.3922L124.977 52.4967H124.913L123.409 49.5202L117.232 39.1826H113.04V56.8174H116.336V46.6078L116.24 43.5033H116.272L117.776 46.4477L123.953 56.8174H128.178V39.1826ZM100.686 49.7763L102.382 44.7835L103.15 42.1591H103.182L103.982 44.8155L105.646 49.7763H100.686ZM108.015 56.8174H111.823L105.39 39.1826H101.006L94.5726 56.8174H98.3172L99.7894 52.4967H106.542L108.015 56.8174ZM96.909 42.1591V39.1826H83.7228V56.8174H87.4034V49.5843H94.9246V46.6078H87.4034V42.1591H96.909ZM77.6099 56.8174H81.8345L75.3055 46.3837L81.6105 39.1826H77.3538L70.1207 47.5359V39.1826H66.4401V56.8174H70.1207V51.6006L72.6171 48.7521L77.6099 56.8174ZM56.0704 41.935C57.5426 41.935 58.6628 42.4471 59.495 43.5033C60.3271 44.5594 60.7112 46.0317 60.7112 47.984C60.7112 49.9363 60.2951 51.4405 59.495 52.4967C59.0877 53.009 58.5653 53.4181 57.9703 53.6905C57.3753 53.963 56.7243 54.0913 56.0704 54.065C54.5662 54.065 53.414 53.5209 52.6139 52.4967C51.8137 51.4726 51.3977 49.9683 51.3977 47.984C51.3977 45.9997 51.7817 44.5274 52.6139 43.5033C53.446 42.4791 54.5662 41.935 56.0704 41.935ZM56.0704 38.9265C54.4964 38.8836 52.9391 39.2591 51.5577 40.0147C50.2845 40.7421 49.2589 41.8347 48.6132 43.1512C47.8788 44.6542 47.5166 46.3117 47.5571 47.984C47.514 49.6668 47.8762 51.3353 48.6132 52.8488C49.2589 54.1653 50.2845 55.2579 51.5577 55.9853C52.9391 56.7409 54.4964 57.1164 56.0704 57.0734C57.6338 57.1123 59.1797 56.7369 60.5511 55.9853C61.8171 55.2488 62.8404 54.1587 63.4956 52.8488C64.2067 51.3276 64.5572 49.6628 64.5198 47.984C64.5545 46.3157 64.2041 44.662 63.4956 43.1512C62.8404 41.8413 61.8171 40.7512 60.5511 40.0147C59.1797 39.2631 57.6338 38.8877 56.0704 38.9265ZM37.5074 41.935C38.9797 41.935 40.1319 42.4471 40.932 43.5033C41.7321 44.5594 42.1482 46.0317 42.1482 47.984C42.1482 49.9363 41.7321 51.4405 40.932 52.4967C40.5265 53.011 40.0044 53.4214 39.409 53.6941C38.8135 53.9668 38.1617 54.0939 37.5074 54.065C36.0032 54.065 34.851 53.5209 34.0509 52.4967C33.2508 51.4726 32.8347 49.9683 32.8347 47.984C32.8347 45.9997 33.2508 44.5274 34.0509 43.5033C34.851 42.4791 36.0032 41.935 37.5074 41.935ZM37.5074 38.9265C35.9334 38.8836 34.3762 39.2591 32.9947 40.0147C31.7216 40.7421 30.6959 41.8347 30.0502 43.1512C29.3418 44.662 28.9913 46.3157 29.0261 47.984C28.9887 49.6628 29.3392 51.3276 30.0502 52.8488C30.6959 54.1653 31.7216 55.2579 32.9947 55.9853C34.3762 56.7409 35.9334 57.1164 37.5074 57.0734C39.0815 57.1164 40.6387 56.7409 42.0202 55.9853C43.2766 55.2468 44.2892 54.1564 44.9326 52.8488C45.6367 51.4726 45.9568 49.8723 45.9568 47.984C46.0072 46.3143 45.656 44.6569 44.9326 43.1512C44.2892 41.8436 43.2766 40.7532 42.0202 40.0147C40.6387 39.2591 39.0815 38.8836 37.5074 38.9265ZM19.6806 53.8409V39.1826H16V56.8174H28.9621V53.8409H19.6806Z" fill="#000014"/>
</g>
<defs>
<clipPath id="clip0_1_47">
<rect width="200" height="72" fill="white" transform="translate(16 12)"/>
</clipPath>
</defs>
</svg>
